<svg xmlns="http://www.w3.org/2000/svg" width="202.91mm" height="71.07mm" viewBox="0 0 575.16 201.44"><title>npmi-logo</title><polygon points="517.43 0 0 0 0 172.67 143.73 172.67 143.73 201.44 258.72 201.44 258.72 172.67 517.43 172.67 575.16 172.67 575.16 0 517.43 0" fill="#cb3837"/><path d="M28.78,29.06V144.17H86.33V57.83h28.78v86.33h28.78V29.06h28.78V172.94h57.56V57.83H259v57.56H230.22v28.78h57.56V29.06h28.78V144.17h57.56V57.83h28.78v86.33h28.78V57.83h28.78v86.33h28.78V29.06" transform="translate(-0.57 -0.28)" fill="#fff"/><path d="M518,143.89V29.06h28.78l0.29,114.83H518Z" transform="translate(-0.57 -0.28)" fill="#fff"/></svg>